<svg width="105" height="36" viewBox="0 0 105 36" fill="none" xmlns="http://www.w3.org/2000/svg">
<g clip-path="url(#clip0_349_21486)">
<g clip-path="url(#clip1_349_21486)">
<path d="M19.3152 13.0862C18.8611 12.1443 18.3355 11.2353 17.7412 10.3657C18.2561 8.86434 19.1097 7.48881 20.2641 6.33442C21.2674 5.33121 22.4375 4.55488 23.7121 4.0307C24.2443 4.56311 24.7327 5.13918 25.1723 5.75245C21.9817 6.77106 19.6084 9.63672 19.3152 13.0862Z" fill="#054E58"/>
<path d="M23.5107 13.8084V22.2623C23.5107 27.5066 19.2441 31.7731 13.9999 31.7731C8.75574 31.7731 4.48918 27.5065 4.48918 22.2623C4.48918 19.9315 2.59293 18.0353 0.262207 18.0353V15.9218C3.75836 15.9218 6.60271 18.7662 6.60271 22.2623C6.60271 26.3411 9.9211 29.6595 14 29.6595C18.0789 29.6595 21.3973 26.3411 21.3973 22.2623V13.8083C21.3973 10.8053 23.4958 8.28321 26.3035 7.63142C26.622 8.27063 26.8927 8.93754 27.1097 9.62815C25.0757 9.9326 23.5107 11.691 23.5107 13.8084Z" fill="#054E58"/>
<path d="M18.7693 4.83982C18.0614 5.54772 17.4389 6.33579 16.9194 7.18207L16.2159 8.32788L15.2099 7.31454C12.7826 4.88728 9.86678 3.1249 6.68359 2.11556C7.50203 1.59855 8.37813 1.16508 9.30063 0.82821C11.6787 1.8303 13.8886 3.2324 15.8448 5.00224C16.2791 4.41717 16.7574 3.86276 17.2748 3.3454C18.0578 2.5624 18.9133 1.87818 19.8261 1.29867C20.566 1.64665 21.2704 2.05797 21.9313 2.52696C20.7786 3.12138 19.7124 3.89672 18.7693 4.83982Z" fill="#054E58"/>
<path d="M14 36.0001C6.42503 36.0001 0.262207 29.8374 0.262207 22.2623V20.1488C1.42757 20.1488 2.37573 21.0969 2.37573 22.2623C2.37573 28.6719 7.59039 33.8866 14 33.8866C20.4096 33.8866 25.6243 28.6719 25.6243 22.2623V13.8083C25.6243 12.6939 26.4915 11.7787 27.5866 11.7008C27.6858 12.3656 27.7378 13.0457 27.7378 13.7379V22.2623C27.7378 29.8374 21.575 36.0001 14 36.0001Z" fill="#054E58"/>
<path d="M14 27.5461C11.0865 27.5461 8.71623 25.1758 8.71623 22.2624C8.71623 17.6009 4.92378 13.8083 0.262207 13.8083V13.7379C0.262207 13.0444 0.314309 12.3629 0.414012 11.6967C3.18193 11.7353 5.77703 12.8292 7.73614 14.7884C9.73098 16.7833 10.8297 19.4376 10.8297 22.2624C10.8297 24.0105 12.2519 25.4326 13.9999 25.4326C15.748 25.4326 17.1702 24.0104 17.1702 22.2624C17.1702 13.8576 11.0056 6.86653 2.96059 5.5706C3.45025 4.91058 3.99763 4.29605 4.59507 3.73397C8.02302 4.52745 11.1681 6.26171 13.7154 8.80906C17.3061 12.3998 19.2836 17.1776 19.2836 22.2624C19.2838 25.1758 16.9135 27.5461 14 27.5461Z" fill="#054E58"/>
<path d="M15.7805 1.85094C15.7162 1.91514 15.6524 1.97997 15.5892 2.04529C14.6297 1.31537 13.6224 0.657318 12.5728 0.0740059C13.042 0.0253496 13.5181 0.000109933 14.0001 0.000109933C15.173 0.000109933 16.3118 0.148187 17.3993 0.426062C16.8321 0.865796 16.2902 1.34132 15.7805 1.85094Z" fill="#054E58"/>
<path d="M14 23.3191C13.4164 23.3191 12.9433 22.846 12.9433 22.2624C12.9433 15.484 7.59738 9.93089 0.900391 9.59733C1.12602 8.88492 1.40826 8.19755 1.74189 7.54034C5.13721 7.87467 8.2844 9.35714 10.7259 11.7987C13.5187 14.5916 15.0568 18.3076 15.0568 22.2624C15.0568 22.846 14.5836 23.3191 14 23.3191Z" fill="#054E58"/>
</g>
<path d="M41.72 10.24C40.84 10.24 40.0933 9.93333 39.48 9.32C38.8667 8.70666 38.56 7.97333 38.56 7.12C38.56 6.24 38.8667 5.49333 39.48 4.88C40.0933 4.26666 40.84 3.96 41.72 3.96C42.5733 3.96 43.3067 4.26666 43.92 4.88C44.56 5.49333 44.88 6.24 44.88 7.12C44.88 7.97333 44.56 8.70666 43.92 9.32C43.3067 9.93333 42.5733 10.24 41.72 10.24ZM36.48 34C36.2933 34 36.2 33.84 36.2 33.52C36.2 33.2267 36.2933 33.08 36.48 33.08H36.92C37.6933 33.08 38.2933 32.96 38.72 32.72C39.1467 32.4533 39.36 31.9067 39.36 31.08V18.76C39.36 17.9067 39.1733 17.3467 38.8 17.08C38.4533 16.7867 37.8267 16.6133 36.92 16.56C36.68 16.56 36.56 16.36 36.56 15.96C36.56 15.7733 36.64 15.6667 36.8 15.64C37.0667 15.56 39.6533 15.04 44.56 14.08V31.08C44.56 31.9067 44.7733 32.4533 45.2 32.72C45.6533 32.96 46.2667 33.08 47.04 33.08H47.48C47.6667 33.08 47.76 33.2267 47.76 33.52C47.76 33.84 47.6667 34 47.48 34H36.48ZM60.7053 34.52C58.7053 34.52 56.9186 34.04 55.3453 33.08C53.7986 32.12 52.5986 30.8533 51.7453 29.28C50.892 27.7067 50.4653 26.04 50.4653 24.28C50.4653 22.4933 50.892 20.8267 51.7453 19.28C52.5986 17.7067 53.7986 16.4533 55.3453 15.52C56.9186 14.56 58.7053 14.08 60.7053 14.08C62.7053 14.08 64.4786 14.56 66.0253 15.52C67.5986 16.4533 68.812 17.7067 69.6653 19.28C70.5186 20.8267 70.9453 22.4933 70.9453 24.28C70.9453 26.04 70.5186 27.7067 69.6653 29.28C68.812 30.8533 67.5986 32.12 66.0253 33.08C64.4786 34.04 62.7053 34.52 60.7053 34.52ZM60.7053 33.52C62.252 33.52 63.4386 32.6267 64.2653 30.84C65.1186 29.0267 65.5453 26.84 65.5453 24.28C65.5453 21.6933 65.1186 19.52 64.2653 17.76C63.4386 16 62.252 15.12 60.7053 15.12C59.1586 15.12 57.972 16 57.1453 17.76C56.3186 19.52 55.9053 21.6933 55.9053 24.28C55.9053 26.84 56.3186 29.0267 57.1453 30.84C57.972 32.6267 59.1586 33.52 60.7053 33.52ZM87.58 14.04C88.7267 14.04 89.6467 14.36 90.34 15C91.06 15.64 91.42 16.3733 91.42 17.2C91.42 17.84 91.1933 18.3733 90.74 18.8C90.3133 19.2267 89.7667 19.44 89.1 19.44C88.6467 19.44 88.2467 19.3467 87.9 19.16C87.5533 18.9467 87.1533 18.6533 86.7 18.28C86.3267 17.9333 85.9933 17.68 85.7 17.52C85.4067 17.3333 85.0867 17.24 84.74 17.24C84.1267 17.24 83.5667 17.5733 83.06 18.24C82.5533 18.9067 82.1133 19.7867 81.74 20.88V31.08C81.74 31.9067 81.9267 32.4533 82.3 32.72C82.6733 32.96 83.2333 33.08 83.98 33.08H84.42C84.6067 33.08 84.7 33.24 84.7 33.56C84.7 33.8533 84.6067 34 84.42 34H73.9C73.7133 34 73.62 33.8533 73.62 33.56C73.62 33.24 73.7133 33.08 73.9 33.08H74.3C75.0467 33.08 75.6067 32.96 75.98 32.72C76.3533 32.4533 76.54 31.9067 76.54 31.08V18.72C76.54 17.8667 76.3533 17.3067 75.98 17.04C75.6067 16.7467 74.98 16.5867 74.1 16.56C73.9667 16.5333 73.8733 16.4533 73.82 16.32C73.7667 16.1867 73.74 16.0533 73.74 15.92C73.74 15.76 73.82 15.6667 73.98 15.64C74.22 15.56 76.8067 15.04 81.74 14.08V18.72C82.46 17.28 83.3267 16.1467 84.34 15.32C85.38 14.4667 86.46 14.04 87.58 14.04ZM98.2434 10.24C97.3634 10.24 96.6168 9.93333 96.0034 9.32C95.3901 8.70666 95.0834 7.97333 95.0834 7.12C95.0834 6.24 95.3901 5.49333 96.0034 4.88C96.6168 4.26666 97.3634 3.96 98.2434 3.96C99.0968 3.96 99.8301 4.26666 100.443 4.88C101.083 5.49333 101.403 6.24 101.403 7.12C101.403 7.97333 101.083 8.70666 100.443 9.32C99.8301 9.93333 99.0968 10.24 98.2434 10.24ZM93.0034 34C92.8168 34 92.7234 33.84 92.7234 33.52C92.7234 33.2267 92.8168 33.08 93.0034 33.08H93.4434C94.2168 33.08 94.8168 32.96 95.2434 32.72C95.6701 32.4533 95.8834 31.9067 95.8834 31.08V18.76C95.8834 17.9067 95.6968 17.3467 95.3234 17.08C94.9768 16.7867 94.3501 16.6133 93.4434 16.56C93.2034 16.56 93.0834 16.36 93.0834 15.96C93.0834 15.7733 93.1634 15.6667 93.3234 15.64C93.5901 15.56 96.1768 15.04 101.083 14.08V31.08C101.083 31.9067 101.297 32.4533 101.723 32.72C102.177 32.96 102.79 33.08 103.563 33.08H104.003C104.19 33.08 104.283 33.2267 104.283 33.52C104.283 33.84 104.19 34 104.003 34H93.0034Z" fill="#054E58"/>
</g>
<defs>
<clipPath id="clip0_349_21486">
<rect width="105" height="36" fill="white"/>
</clipPath>
<clipPath id="clip1_349_21486">
<rect width="28" height="36.0001" fill="white" transform="matrix(1 0 0 -1 0 36.0001)"/>
</clipPath>
</defs>
</svg>
